HIERARCHY
ROOT Hips
{
  OFFSET 0 0 0
  CHANNELS 6 Xposition Yposition Zposition Zrotation Yrotation Xrotation
  JOINT LeftThigh
  {
    OFFSET 8.409438 0 -5.917753
    CHANNELS 3 Zrotation Yrotation Xrotation
    JOINT LeftLeg
    {
      OFFSET 0 0 -42.358652
      CHANNELS 3 Zrotation Yrotation Xrotation
      JOINT LeftFoot
      {
        OFFSET 0 0 -39.357303
        CHANNELS 3 Zrotation Yrotation Xrotation
      }
    }
  }
  JOINT RightThigh
  {
    OFFSET -8.409438 0 -5.917753
    CHANNELS 3 Zrotation Yrotation Xrotation
    JOINT RightLeg
    {
      OFFSET 0 0 -42.358652
      CHANNELS 3 Zrotation Yrotation Xrotation
      JOINT RightFoot
      {
        OFFSET 0 0 -39.357303
        CHANNELS 3 Zrotation Yrotation Xrotation
      }
    }
  }
  JOINT SpineLow
  {
    OFFSET 0 0 4.719101
    CHANNELS 3 Zrotation Yrotation Xrotation
    JOINT SpineMid
    {
      OFFSET 0 0 12.899191
      CHANNELS 3 Zrotation Yrotation Xrotation
      JOINT Chest
      {
        OFFSET 0 0 12.899191
        CHANNELS 3 Zrotation Yrotation Xrotation
        JOINT LeftShoulder
        {
          OFFSET 7.550562 1.41573 9.438202
          CHANNELS 3 Zrotation Yrotation Xrotation
          JOINT LeftArm
          {
            OFFSET 9.155056 0 4.247191
            CHANNELS 3 Zrotation Yrotation Xrotation
            JOINT LeftForearm
            {
              OFFSET 0 0 25.771955
              CHANNELS 3 Zrotation Yrotation Xrotation
              JOINT LeftHand
              {
                OFFSET 0 0 25.197169
                CHANNELS 3 Zrotation Yrotation Xrotation
              }
            }
          }
        }
        JOINT RightShoulder
        {
          OFFSET -7.550562 1.41573 9.438202
          CHANNELS 3 Zrotation Yrotation Xrotation
          JOINT RightArm
          {
            OFFSET -9.155056 0 4.247191
            CHANNELS 3 Zrotation Yrotation Xrotation
            JOINT RightForearm
            {
              OFFSET 0 0 -25.771955
              CHANNELS 3 Zrotation Yrotation Xrotation
              JOINT RightHand
              {
                OFFSET 0 0 -25.197169
                CHANNELS 3 Zrotation Yrotation Xrotation
              }
            }
          }
        }
        JOINT Neck
        {
          OFFSET 0 0 15.101124
          CHANNELS 3 Zrotation Yrotation Xrotation
          JOINT Head
          {
            OFFSET 0 0 11.325843
            CHANNELS 3 Zrotation Yrotation Xrotation
            End Site
            {
              OFFSET 0 0 14.157303
            }
          }
        }
      }
    }
  }
}
MOTION
Frames: 5
Frame Time: 0.0
0.0  93.25843  0.0  2.708105  -6.998422  -89.661225  16.931493  -19.271463  1.107422  3.250463  2.75584  12.842183  -4.740008  -0.117366  -1.490795  -10.966142  4.666942  -15.342228  2.397736  13.323613  21.792577  2.585477  1.338315  -2.349722  -2.357962  -1.239276  -0.963967  -6.400074  -3.477125  -2.513317  -6.400074  -3.477125  -2.513317  -14.75631  31.718693  4.654774  156.89799  55.358151  -136.633785  3.309541  -4.136342  32.325662  85.569057  -21.750877  5.038212  4.529647  -3.807207  33.868912  50.941823  32.453152  17.242257  -33.852114  18.541992  -81.918155  88.892154  4.633094  1.715034  8.828934  0.695459  7.821921  6.614008  0.634894  5.857775  
0.0  93.25843  0.0  2.584013  -3.482731  -89.777443  15.241277  -19.328434  0.368664  1.822593  2.975957  13.028842  -4.903009  -0.162249  -1.515296  -12.845052  5.450503  -14.413723  1.762636  13.017511  21.26305  1.988403  1.263013  -2.440295  -2.41514  -1.226542  -1.034881  -6.553107  -3.451445  -2.705267  -6.553107  -3.451445  -2.705267  -14.760056  31.985831  5.693695  156.612192  53.531847  -137.076112  3.752895  -3.913458  35.157127  85.370399  -21.575393  6.359327  4.162306  -4.261621  33.65397  51.024792  33.252121  18.173176  -33.140957  18.338048  -83.782283  88.871863  5.381128  1.42171  7.305024  0.519576  7.966218  5.473063  0.485096  5.969427  
0.0  93.25843  0.0  2.472135  0.163166  -89.90641  13.82067  -19.459795  -0.241527  0.117328  3.246691  12.877429  -5.16555  -0.239646  -1.58175  -14.638893  6.29558  -13.409028  0.742808  12.633444  20.542841  1.788677  1.217115  -2.428285  -2.460137  -1.221899  -1.0897  -6.673433  -3.446052  -2.853117  -6.673432  -3.446051  -2.853117  -14.353872  32.173044  6.931343  156.218138  51.765116  -137.685678  4.581351  -3.638737  38.652623  85.164569  -21.553009  7.805708  4.066891  -4.592148  33.336744  51.240298  34.324986  19.157644  -32.66814  17.980798  -85.80535  88.919835  6.120057  0.968195  5.684288  0.40722  7.990287  4.258738  0.379858  5.989519  
0.0  93.25843  0.0  2.399609  3.766993  -90.078212  12.683009  -19.606668  -0.632434  -1.693383  3.463737  12.379319  -5.404836  -0.34027  -1.623359  -16.010616  7.201458  -12.230267  -0.434647  12.186275  19.715634  1.357682  1.203137  -2.426764  -2.451724  -1.216955  -1.113247  -6.649353  -3.434555  -2.918393  -6.649353  -3.434555  -2.918393  -13.574622  32.229284  8.254689  155.626079  50.017273  -138.498515  6.00196  -3.396558  42.782495  84.81643  -21.621476  9.191587  4.125754  -4.78066  32.811917  51.756977  35.664774  20.276303  -32.50203  17.352557  -88.007619  88.910785  6.812066  0.442823  3.897062  0.347279  7.8355  2.918904  0.310504  5.874677  
0.0  93.25843  0.0  2.381446  7.315903  -90.262342  11.717452  -19.782646  -0.801203  -3.486904  3.651129  11.528363  -5.692489  -0.465473  -1.715359  -16.990945  8.172242  -10.967517  -1.8922  11.682643  18.770423  1.019429  1.175335  -2.361224  -2.352372  -1.198454  -1.090624  -6.379493  -3.377626  -2.86358  -6.379493  -3.377626  -2.863579  -12.879586  32.042042  9.491293  154.391065  48.517887  -139.972761  7.597868  -3.361718  47.442953  84.435218  -21.885318  10.072628  3.997676  -4.973382  31.979993  52.709283  37.384898  21.640858  -32.564651  16.405044  -90.38695  88.753839  7.482044  -0.116285  1.802147  0.285993  7.410557  1.348374  0.236393  5.557121  
